<mxfile host="app.diagrams.net" modified="2021-02-17T07:50:50.452Z" agent="5.0 (Windows NT 10.0; Win64; x64) AppleWebKit/537.36 (KHTML, like Gecko) Chrome/88.0.4324.150 Safari/537.36" etag="LkTqSsAO0270_mYZElSz" version="14.3.0" type="github">
  <diagram name="Page-1" id="9f46799a-70d6-7492-0946-bef42562c5a5">
    <mxGraphModel dx="599" dy="361" grid="1" gridSize="10" guides="1" tooltips="1" connect="1" arrows="1" fold="1" page="1" pageScale="1" pageWidth="1100" pageHeight="850" background="#ffffff" math="0" shadow="0">
      <root>
        <mxCell id="0" />
        <mxCell id="1" parent="0" />
        <mxCell id="78961159f06e98e8-17" value="Thread Pool" style="swimlane;html=1;fontStyle=1;align=center;verticalAlign=top;childLayout=stackLayout;horizontal=1;startSize=26;horizontalStack=0;resizeParent=1;resizeLast=0;collapsible=1;marginBottom=0;swimlaneFillColor=#ffffff;rounded=0;shadow=0;comic=0;labelBackgroundColor=none;strokeWidth=1;fillColor=none;fontFamily=Verdana;fontSize=12" parent="1" vertex="1">
          <mxGeometry x="90" y="83" width="160" height="160" as="geometry" />
        </mxCell>
        <mxCell id="78961159f06e98e8-21" value="Dynamically allocate threads.&lt;br&gt;&lt;br&gt;&lt;b&gt;&quot;pthread nthreads&quot;&lt;/b&gt; : Number of threads&lt;br&gt;&lt;br&gt;&lt;b&gt;&quot;worker_func()&quot; &lt;/b&gt;: Worker thread : loop inside&amp;nbsp;" style="text;html=1;strokeColor=none;fillColor=none;align=left;verticalAlign=top;spacingLeft=4;spacingRight=4;whiteSpace=wrap;overflow=hidden;rotatable=0;points=[[0,0.5],[1,0.5]];portConstraint=eastwest;" parent="78961159f06e98e8-17" vertex="1">
          <mxGeometry y="26" width="160" height="134" as="geometry" />
        </mxCell>
        <mxCell id="bU6Ye77IemriyfPlAk-k-10" value="" style="endArrow=classic;html=1;" edge="1" parent="78961159f06e98e8-17">
          <mxGeometry width="50" height="50" relative="1" as="geometry">
            <mxPoint y="127" as="sourcePoint" />
            <mxPoint x="-30" y="357" as="targetPoint" />
            <Array as="points">
              <mxPoint x="-30" y="127" />
            </Array>
          </mxGeometry>
        </mxCell>
        <mxCell id="bU6Ye77IemriyfPlAk-k-2" value="Shared Resources" style="swimlane;html=1;fontStyle=1;align=center;verticalAlign=top;childLayout=stackLayout;horizontal=1;startSize=26;horizontalStack=0;resizeParent=1;resizeLast=0;collapsible=1;marginBottom=0;swimlaneFillColor=#ffffff;rounded=0;shadow=0;comic=0;labelBackgroundColor=none;strokeWidth=1;fillColor=none;fontFamily=Verdana;fontSize=12" vertex="1" parent="1">
          <mxGeometry x="320" y="68" width="160" height="200" as="geometry" />
        </mxCell>
        <mxCell id="bU6Ye77IemriyfPlAk-k-3" value="&lt;b&gt;&quot;steque_t steque&quot; :&lt;/b&gt; Requests queued in this storage.&lt;br&gt;&lt;br&gt;&lt;b&gt;&quot;int num_req&quot; :&lt;/b&gt; Number of remaining requests to perform by worker threads.&lt;br&gt;&lt;br&gt;&lt;b&gt;&quot;int num&quot; :&lt;/b&gt; Number of requests enqueued currently" style="text;html=1;strokeColor=none;fillColor=none;align=left;verticalAlign=top;spacingLeft=4;spacingRight=4;whiteSpace=wrap;overflow=hidden;rotatable=0;points=[[0,0.5],[1,0.5]];portConstraint=eastwest;" vertex="1" parent="bU6Ye77IemriyfPlAk-k-2">
          <mxGeometry y="26" width="160" height="174" as="geometry" />
        </mxCell>
        <mxCell id="bU6Ye77IemriyfPlAk-k-4" value="Mutex and &lt;br&gt;Condition Variable" style="swimlane;html=1;fontStyle=1;align=center;verticalAlign=top;childLayout=stackLayout;horizontal=1;startSize=40;horizontalStack=0;resizeParent=1;resizeLast=0;collapsible=1;marginBottom=0;swimlaneFillColor=#ffffff;rounded=0;shadow=0;comic=0;labelBackgroundColor=none;strokeWidth=1;fillColor=none;fontFamily=Verdana;fontSize=12" vertex="1" parent="1">
          <mxGeometry x="320" y="280" width="160" height="127" as="geometry" />
        </mxCell>
        <mxCell id="bU6Ye77IemriyfPlAk-k-5" value="&lt;span&gt;mutex m&lt;/span&gt;&lt;br&gt;mutex m_fin&lt;br&gt;condition variable c_all&lt;br&gt;condition variable c_fin&lt;br&gt;condition variable c_full&amp;nbsp;" style="text;html=1;strokeColor=none;fillColor=none;align=left;verticalAlign=top;spacingLeft=4;spacingRight=4;whiteSpace=wrap;overflow=hidden;rotatable=0;points=[[0,0.5],[1,0.5]];portConstraint=eastwest;fontStyle=1" vertex="1" parent="bU6Ye77IemriyfPlAk-k-4">
          <mxGeometry y="40" width="160" height="80" as="geometry" />
        </mxCell>
        <mxCell id="bU6Ye77IemriyfPlAk-k-7" value="Structure - req_info" style="swimlane;html=1;fontStyle=1;align=center;verticalAlign=top;childLayout=stackLayout;horizontal=1;startSize=26;horizontalStack=0;resizeParent=1;resizeLast=0;collapsible=1;marginBottom=0;swimlaneFillColor=#ffffff;rounded=0;shadow=0;comic=0;labelBackgroundColor=none;strokeWidth=1;fillColor=none;fontFamily=Verdana;fontSize=12" vertex="1" parent="1">
          <mxGeometry x="540" y="104" width="160" height="190" as="geometry" />
        </mxCell>
        <mxCell id="bU6Ye77IemriyfPlAk-k-8" value="&lt;b&gt;&quot;int id&quot; &lt;/b&gt;: Thread id.&lt;br&gt;&lt;b&gt;&quot;FILE *file&quot;&lt;/b&gt; : Downloading file.&lt;br&gt;&lt;b&gt;&quot;char *server&quot; &lt;/b&gt;: Server host name&lt;br&gt;&lt;b&gt;&quot;unsigned short port&quot;&lt;/b&gt; : Port number&lt;br&gt;&lt;b&gt;&quot;char *req_path&quot; &lt;/b&gt;: File path in server side.&lt;br&gt;&lt;b&gt;&quot;char *local_path&quot; &lt;/b&gt;: File path in client side." style="text;html=1;strokeColor=none;fillColor=none;align=left;verticalAlign=top;spacingLeft=4;spacingRight=4;whiteSpace=wrap;overflow=hidden;rotatable=0;points=[[0,0.5],[1,0.5]];portConstraint=eastwest;" vertex="1" parent="bU6Ye77IemriyfPlAk-k-7">
          <mxGeometry y="26" width="160" height="164" as="geometry" />
        </mxCell>
        <mxCell id="bU6Ye77IemriyfPlAk-k-9" value="" style="endArrow=classic;html=1;" edge="1" parent="1">
          <mxGeometry width="50" height="50" relative="1" as="geometry">
            <mxPoint x="460" y="118" as="sourcePoint" />
            <mxPoint x="540" y="118" as="targetPoint" />
          </mxGeometry>
        </mxCell>
        <mxCell id="bU6Ye77IemriyfPlAk-k-11" value="Thread wait" style="swimlane;html=1;fontStyle=1;align=center;verticalAlign=top;childLayout=stackLayout;horizontal=1;startSize=26;horizontalStack=0;resizeParent=1;resizeLast=0;collapsible=1;marginBottom=0;swimlaneFillColor=#ffffff;rounded=0;shadow=0;comic=0;labelBackgroundColor=none;strokeWidth=1;fillColor=none;fontFamily=Verdana;fontSize=12" vertex="1" parent="1">
          <mxGeometry x="60" y="470" width="160" height="80" as="geometry" />
        </mxCell>
        <mxCell id="bU6Ye77IemriyfPlAk-k-12" value="&lt;span&gt;- Wait if there is no requests in storage (steque).&lt;br&gt;&lt;/span&gt;" style="text;html=1;strokeColor=none;fillColor=none;align=left;verticalAlign=top;spacingLeft=4;spacingRight=4;whiteSpace=wrap;overflow=hidden;rotatable=0;points=[[0,0.5],[1,0.5]];portConstraint=eastwest;" vertex="1" parent="bU6Ye77IemriyfPlAk-k-11">
          <mxGeometry y="26" width="160" height="54" as="geometry" />
        </mxCell>
        <mxCell id="bU6Ye77IemriyfPlAk-k-14" value="" style="endArrow=classic;html=1;entryX=-0.019;entryY=0.09;entryDx=0;entryDy=0;entryPerimeter=0;" edge="1" parent="1" target="bU6Ye77IemriyfPlAk-k-15">
          <mxGeometry width="50" height="50" relative="1" as="geometry">
            <mxPoint x="220" y="483" as="sourcePoint" />
            <mxPoint x="250" y="483" as="targetPoint" />
          </mxGeometry>
        </mxCell>
        <mxCell id="bU6Ye77IemriyfPlAk-k-15" value="Send requests" style="swimlane;html=1;fontStyle=1;align=center;verticalAlign=top;childLayout=stackLayout;horizontal=1;startSize=26;horizontalStack=0;resizeParent=1;resizeLast=0;collapsible=1;marginBottom=0;swimlaneFillColor=#ffffff;rounded=0;shadow=0;comic=0;labelBackgroundColor=none;strokeWidth=1;fillColor=none;fontFamily=Verdana;fontSize=12" vertex="1" parent="1">
          <mxGeometry x="300" y="470" width="160" height="150" as="geometry" />
        </mxCell>
        <mxCell id="bU6Ye77IemriyfPlAk-k-16" value="&lt;span&gt;- Deque requests from the storage.&lt;br&gt;- Send requests and download files from server.&lt;br&gt;- Signal condition variable &quot;c_full&quot; in case of&amp;nbsp;&lt;br&gt;&lt;/span&gt;" style="text;html=1;strokeColor=none;fillColor=none;align=left;verticalAlign=top;spacingLeft=4;spacingRight=4;whiteSpace=wrap;overflow=hidden;rotatable=0;points=[[0,0.5],[1,0.5]];portConstraint=eastwest;" vertex="1" parent="bU6Ye77IemriyfPlAk-k-15">
          <mxGeometry y="26" width="160" height="124" as="geometry" />
        </mxCell>
        <mxCell id="bU6Ye77IemriyfPlAk-k-17" value="Broadcast" style="text;html=1;strokeColor=none;fillColor=none;align=center;verticalAlign=middle;whiteSpace=wrap;rounded=0;fontStyle=1" vertex="1" parent="1">
          <mxGeometry x="238" y="463" width="40" height="20" as="geometry" />
        </mxCell>
      </root>
    </mxGraphModel>
  </diagram>
</mxfile>
